<svg width="500" height="500" viewBox="0 0 500 500" fill="none" xmlns="http://www.w3.org/2000/svg">
<path d="M250 0C112 0 0 112 0 250C0 388 112 500 250 500C388 500 500 388 500 250C500 112 388 0 250 0Z" fill="#E3458C"/>
<path d="M339 329.002H274V264.002H339V329.002ZM382 366.002V228.002C382 220.002 377 209.002 372 203.002L260 91.002C254 85.002 245 85.002 240 91.002L128 203.002C122 209.002 118 220.002 118 228.002V366.002C118 374.002 125 380.002 132 380.002H161V264.002H226V380.002H367C376 380.002 382 373.002 382 366.002Z" fill="white"/>
</svg>
